# xmcd
#
# Track frame offsets:
#	150
#	11095
#	46325
#	66190
#	94080
#	123375
#	148745
#	168220
#
# Disc length: 2581 seconds
#
# Revision: 2
# Processed by: cddbd v1.5.1PL2 Copyright (c) Steve Scherf et al.
# Submitted via: EasyCDDAExtractor 8.0.2.1
#
DISCID=690a1308
DTITLE=Metallica - Frölundaborg 13-02-87 Disc 1
DYEAR=1987
DGENRE=Hard Rock
TTITLE0=Battery
TTITLE1=Master Of Puppets
TTITLE2=For Whom The Bell Tolls
TTITLE3=Welcome Home
TTITLE4=Ride The Lightning
TTITLE5=Bass Solo
TTITLE6=Whiplash
TTITLE7=The Things That Should Not Be
EXTD=
EXTT0=
EXTT1=
EXTT2=
EXTT3=
EXTT4=
EXTT5=
EXTT6=
EXTT7=
PLAYORDER=
